<svg width="209" height="54" viewBox="0 0 209 54" fill="none" xmlns="http://www.w3.org/2000/svg">
<path d="M56.4 38V17.21H70.32V21.14H61.08V25.49H69.3V29.42H61.08V38H56.4ZM79.6266 38.3C78.3266 38.28 77.2666 38.14 76.4466 37.88C75.6466 37.62 75.0066 37.26 74.5266 36.8C74.0666 36.32 73.7466 35.75 73.5666 35.09C73.4066 34.41 73.3266 33.65 73.3266 32.81V15.44L77.7966 14.72V31.91C77.7966 32.31 77.8266 32.67 77.8866 32.99C77.9466 33.31 78.0566 33.58 78.2166 33.8C78.3966 34.02 78.6466 34.2 78.9666 34.34C79.2866 34.48 79.7166 34.57 80.2566 34.61L79.6266 38.3ZM89.2882 34.88C89.7282 34.88 90.1482 34.87 90.5482 34.85C90.9482 34.83 91.2682 34.8 91.5082 34.76V31.37C91.3282 31.33 91.0582 31.29 90.6982 31.25C90.3382 31.21 90.0082 31.19 89.7082 31.19C89.2882 31.19 88.8882 31.22 88.5082 31.28C88.1482 31.32 87.8282 31.41 87.5482 31.55C87.2682 31.69 87.0482 31.88 86.8882 32.12C86.7282 32.36 86.6482 32.66 86.6482 33.02C86.6482 33.72 86.8782 34.21 87.3382 34.49C87.8182 34.75 88.4682 34.88 89.2882 34.88ZM88.9282 21.8C90.2482 21.8 91.3482 21.95 92.2282 22.25C93.1082 22.55 93.8082 22.98 94.3282 23.54C94.8682 24.1 95.2482 24.78 95.4682 25.58C95.6882 26.38 95.7982 27.27 95.7982 28.25V37.55C95.1582 37.69 94.2682 37.85 93.1282 38.03C91.9882 38.23 90.6082 38.33 88.9882 38.33C87.9682 38.33 87.0382 38.24 86.1982 38.06C85.3782 37.88 84.6682 37.59 84.0682 37.19C83.4682 36.77 83.0082 36.23 82.6882 35.57C82.3682 34.91 82.2082 34.1 82.2082 33.14C82.2082 32.22 82.3882 31.44 82.7482 30.8C83.1282 30.16 83.6282 29.65 84.2482 29.27C84.8682 28.89 85.5782 28.62 86.3782 28.46C87.1782 28.28 88.0082 28.19 88.8682 28.19C89.4482 28.19 89.9582 28.22 90.3982 28.28C90.8582 28.32 91.2282 28.38 91.5082 28.46V28.04C91.5082 27.28 91.2782 26.67 90.8182 26.21C90.3582 25.75 89.5582 25.52 88.4182 25.52C87.6582 25.52 86.9082 25.58 86.1682 25.7C85.4282 25.8 84.7882 25.95 84.2482 26.15L83.6782 22.55C83.9382 22.47 84.2582 22.39 84.6382 22.31C85.0382 22.21 85.4682 22.13 85.9282 22.07C86.3882 21.99 86.8682 21.93 87.3682 21.89C87.8882 21.83 88.4082 21.8 88.9282 21.8ZM104.37 34.79C105.19 34.79 105.77 34.71 106.11 34.55C106.45 34.39 106.62 34.08 106.62 33.62C106.62 33.26 106.4 32.95 105.96 32.69C105.52 32.41 104.85 32.1 103.95 31.76C103.25 31.5 102.61 31.23 102.03 30.95C101.47 30.67 100.99 30.34 100.59 29.96C100.19 29.56 99.8802 29.09 99.6602 28.55C99.4402 28.01 99.3302 27.36 99.3302 26.6C99.3302 25.12 99.8802 23.95 100.98 23.09C102.08 22.23 103.59 21.8 105.51 21.8C106.47 21.8 107.39 21.89 108.27 22.07C109.15 22.23 109.85 22.41 110.37 22.61L109.59 26.09C109.07 25.91 108.5 25.75 107.88 25.61C107.28 25.47 106.6 25.4 105.84 25.4C104.44 25.4 103.74 25.79 103.74 26.57C103.74 26.75 103.77 26.91 103.83 27.05C103.89 27.19 104.01 27.33 104.19 27.47C104.37 27.59 104.61 27.73 104.91 27.89C105.23 28.03 105.63 28.19 106.11 28.37C107.09 28.73 107.9 29.09 108.54 29.45C109.18 29.79 109.68 30.17 110.04 30.59C110.42 30.99 110.68 31.44 110.82 31.94C110.98 32.44 111.06 33.02 111.06 33.68C111.06 35.24 110.47 36.42 109.29 37.22C108.13 38.02 106.48 38.42 104.34 38.42C102.94 38.42 101.77 38.3 100.83 38.06C99.9102 37.82 99.2702 37.62 98.9102 37.46L99.6602 33.83C100.42 34.13 101.2 34.37 102 34.55C102.8 34.71 103.59 34.79 104.37 34.79ZM114.401 38V15.44L118.871 14.72V22.28C119.171 22.18 119.551 22.09 120.011 22.01C120.491 21.91 120.951 21.86 121.391 21.86C122.671 21.86 123.731 22.04 124.571 22.4C125.431 22.74 126.111 23.23 126.611 23.87C127.131 24.51 127.491 25.27 127.691 26.15C127.911 27.03 128.021 28.01 128.021 29.09V38H123.551V29.63C123.551 28.19 123.361 27.17 122.981 26.57C122.621 25.97 121.941 25.67 120.941 25.67C120.541 25.67 120.161 25.71 119.801 25.79C119.461 25.85 119.151 25.92 118.871 26V38H114.401ZM138.037 34.43C138.697 34.43 139.237 34.38 139.657 34.28C140.097 34.16 140.447 34.01 140.707 33.83C140.967 33.63 141.147 33.4 141.247 33.14C141.347 32.88 141.397 32.59 141.397 32.27C141.397 31.59 141.077 31.03 140.437 30.59C139.797 30.13 138.697 29.64 137.137 29.12C136.457 28.88 135.777 28.61 135.097 28.31C134.417 27.99 133.807 27.6 133.267 27.14C132.727 26.66 132.287 26.09 131.947 25.43C131.607 24.75 131.437 23.93 131.437 22.97C131.437 22.01 131.617 21.15 131.977 20.39C132.337 19.61 132.847 18.95 133.507 18.41C134.167 17.87 134.967 17.46 135.907 17.18C136.847 16.88 137.907 16.73 139.087 16.73C140.487 16.73 141.697 16.88 142.717 17.18C143.737 17.48 144.577 17.81 145.237 18.17L143.887 21.86C143.307 21.56 142.657 21.3 141.937 21.08C141.237 20.84 140.387 20.72 139.387 20.72C138.267 20.72 137.457 20.88 136.957 21.2C136.477 21.5 136.237 21.97 136.237 22.61C136.237 22.99 136.327 23.31 136.507 23.57C136.687 23.83 136.937 24.07 137.257 24.29C137.597 24.49 137.977 24.68 138.397 24.86C138.837 25.02 139.317 25.19 139.837 25.37C140.917 25.77 141.857 26.17 142.657 26.57C143.457 26.95 144.117 27.4 144.637 27.92C145.177 28.44 145.577 29.05 145.837 29.75C146.097 30.45 146.227 31.3 146.227 32.3C146.227 34.24 145.547 35.75 144.187 36.83C142.827 37.89 140.777 38.42 138.037 38.42C137.117 38.42 136.287 38.36 135.547 38.24C134.807 38.14 134.147 38.01 133.567 37.85C133.007 37.69 132.517 37.52 132.097 37.34C131.697 37.16 131.357 36.99 131.077 36.83L132.397 33.11C133.017 33.45 133.777 33.76 134.677 34.04C135.597 34.3 136.717 34.43 138.037 34.43ZM149.378 18.29L153.848 17.57V22.22H159.218V25.94H153.848V31.49C153.848 32.43 154.008 33.18 154.328 33.74C154.668 34.3 155.338 34.58 156.338 34.58C156.818 34.58 157.308 34.54 157.808 34.46C158.328 34.36 158.798 34.23 159.218 34.07L159.848 37.55C159.308 37.77 158.708 37.96 158.048 38.12C157.388 38.28 156.578 38.36 155.618 38.36C154.398 38.36 153.388 38.2 152.588 37.88C151.788 37.54 151.148 37.08 150.668 36.5C150.188 35.9 149.848 35.18 149.648 34.34C149.468 33.5 149.378 32.57 149.378 31.55V18.29ZM168.302 34.88C168.742 34.88 169.162 34.87 169.562 34.85C169.962 34.83 170.282 34.8 170.522 34.76V31.37C170.342 31.33 170.072 31.29 169.712 31.25C169.352 31.21 169.022 31.19 168.722 31.19C168.302 31.19 167.902 31.22 167.522 31.28C167.162 31.32 166.842 31.41 166.562 31.55C166.282 31.69 166.062 31.88 165.902 32.12C165.742 32.36 165.662 32.66 165.662 33.02C165.662 33.72 165.892 34.21 166.352 34.49C166.832 34.75 167.482 34.88 168.302 34.88ZM167.942 21.8C169.262 21.8 170.362 21.95 171.242 22.25C172.122 22.55 172.822 22.98 173.342 23.54C173.882 24.1 174.262 24.78 174.482 25.58C174.702 26.38 174.812 27.27 174.812 28.25V37.55C174.172 37.69 173.282 37.85 172.142 38.03C171.002 38.23 169.622 38.33 168.002 38.33C166.982 38.33 166.052 38.24 165.212 38.06C164.392 37.88 163.682 37.59 163.082 37.19C162.482 36.77 162.022 36.23 161.702 35.57C161.382 34.91 161.222 34.1 161.222 33.14C161.222 32.22 161.402 31.44 161.762 30.8C162.142 30.16 162.642 29.65 163.262 29.27C163.882 28.89 164.592 28.62 165.392 28.46C166.192 28.28 167.022 28.19 167.882 28.19C168.462 28.19 168.972 28.22 169.412 28.28C169.872 28.32 170.242 28.38 170.522 28.46V28.04C170.522 27.28 170.292 26.67 169.832 26.21C169.372 25.75 168.572 25.52 167.432 25.52C166.672 25.52 165.922 25.58 165.182 25.7C164.442 25.8 163.802 25.95 163.262 26.15L162.692 22.55C162.952 22.47 163.272 22.39 163.652 22.31C164.052 22.21 164.482 22.13 164.942 22.07C165.402 21.99 165.882 21.93 166.382 21.89C166.902 21.83 167.422 21.8 167.942 21.8ZM183.384 34.79C184.204 34.79 184.784 34.71 185.124 34.55C185.464 34.39 185.634 34.08 185.634 33.62C185.634 33.26 185.414 32.95 184.974 32.69C184.534 32.41 183.864 32.1 182.964 31.76C182.264 31.5 181.624 31.23 181.044 30.95C180.484 30.67 180.004 30.34 179.604 29.96C179.204 29.56 178.894 29.09 178.674 28.55C178.454 28.01 178.344 27.36 178.344 26.6C178.344 25.12 178.894 23.95 179.994 23.09C181.094 22.23 182.604 21.8 184.524 21.8C185.484 21.8 186.404 21.89 187.284 22.07C188.164 22.23 188.864 22.41 189.384 22.61L188.604 26.09C188.084 25.91 187.514 25.75 186.894 25.61C186.294 25.47 185.614 25.4 184.854 25.4C183.454 25.4 182.754 25.79 182.754 26.57C182.754 26.75 182.784 26.91 182.844 27.05C182.904 27.19 183.024 27.33 183.204 27.47C183.384 27.59 183.624 27.73 183.924 27.89C184.244 28.03 184.644 28.19 185.124 28.37C186.104 28.73 186.914 29.09 187.554 29.45C188.194 29.79 188.694 30.17 189.054 30.59C189.434 30.99 189.694 31.44 189.834 31.94C189.994 32.44 190.074 33.02 190.074 33.68C190.074 35.24 189.484 36.42 188.304 37.22C187.144 38.02 185.494 38.42 183.354 38.42C181.954 38.42 180.784 38.3 179.844 38.06C178.924 37.82 178.284 37.62 177.924 37.46L178.674 33.83C179.434 34.13 180.214 34.37 181.014 34.55C181.814 34.71 182.604 34.79 183.384 34.79ZM193.414 38V15.44L197.884 14.72V22.28C198.184 22.18 198.564 22.09 199.024 22.01C199.504 21.91 199.964 21.86 200.404 21.86C201.684 21.86 202.744 22.04 203.584 22.4C204.444 22.74 205.124 23.23 205.624 23.87C206.144 24.51 206.504 25.27 206.704 26.15C206.924 27.03 207.034 28.01 207.034 29.09V38H202.564V29.63C202.564 28.19 202.374 27.17 201.994 26.57C201.634 25.97 200.954 25.67 199.954 25.67C199.554 25.67 199.174 25.71 198.814 25.79C198.474 25.85 198.164 25.92 197.884 26V38H193.414Z" fill="black"/>
<rect x="0.5" y="4.5" width="39" height="49" rx="4.5" fill="white" stroke="#AAAAAA"/>
<rect x="2.5" y="2.5" width="39" height="49" rx="4.5" fill="white" stroke="#AAAAAA"/>
<rect x="4.5" y="0.5" width="39" height="49" rx="4.5" fill="white" stroke="#AAAAAA"/>
<path d="M13.6 32V18.14H22.88V20.76H16.72V23.66H22.2V26.28H16.72V32H13.6ZM28.8644 29.62C29.3044 29.62 29.6644 29.5867 29.9444 29.52C30.2377 29.44 30.471 29.34 30.6444 29.22C30.8177 29.0867 30.9377 28.9333 31.0044 28.76C31.071 28.5867 31.1044 28.3933 31.1044 28.18C31.1044 27.7267 30.891 27.3533 30.4644 27.06C30.0377 26.7533 29.3044 26.4267 28.2644 26.08C27.811 25.92 27.3577 25.74 26.9044 25.54C26.451 25.3267 26.0444 25.0667 25.6844 24.76C25.3244 24.44 25.031 24.06 24.8044 23.62C24.5777 23.1667 24.4644 22.62 24.4644 21.98C24.4644 21.34 24.5844 20.7667 24.8244 20.26C25.0644 19.74 25.4044 19.3 25.8444 18.94C26.2844 18.58 26.8177 18.3067 27.4444 18.12C28.071 17.92 28.7777 17.82 29.5644 17.82C30.4977 17.82 31.3044 17.92 31.9844 18.12C32.6644 18.32 33.2244 18.54 33.6644 18.78L32.7644 21.24C32.3777 21.04 31.9444 20.8667 31.4644 20.72C30.9977 20.56 30.431 20.48 29.7644 20.48C29.0177 20.48 28.4777 20.5867 28.1444 20.8C27.8244 21 27.6644 21.3133 27.6644 21.74C27.6644 21.9933 27.7244 22.2067 27.8444 22.38C27.9644 22.5533 28.131 22.7133 28.3444 22.86C28.571 22.9933 28.8244 23.12 29.1044 23.24C29.3977 23.3467 29.7177 23.46 30.0644 23.58C30.7844 23.8467 31.411 24.1133 31.9444 24.38C32.4777 24.6333 32.9177 24.9333 33.2644 25.28C33.6244 25.6267 33.891 26.0333 34.0644 26.5C34.2377 26.9667 34.3244 27.5333 34.3244 28.2C34.3244 29.4933 33.871 30.5 32.9644 31.22C32.0577 31.9267 30.691 32.28 28.8644 32.28C28.251 32.28 27.6977 32.24 27.2044 32.16C26.711 32.0933 26.271 32.0067 25.8844 31.9C25.511 31.7933 25.1844 31.68 24.9044 31.56C24.6377 31.44 24.411 31.3267 24.2244 31.22L25.1044 28.74C25.5177 28.9667 26.0244 29.1733 26.6244 29.36C27.2377 29.5333 27.9844 29.62 28.8644 29.62Z" fill="black"/>
</svg>
